<mxfile host="65bd71144e">
    <diagram id="TOjAec38Bqr92ZQ6rcLn" name="README">
        <mxGraphModel dx="1178" dy="1011" grid="1" gridSize="10" guides="1" tooltips="1" connect="1" arrows="1" fold="1" page="1" pageScale="1" pageWidth="827" pageHeight="1169" math="0" shadow="0">
            <root>
                <mxCell id="Z340vtowlNFs9T8fUVKw-0"/>
                <mxCell id="Z340vtowlNFs9T8fUVKw-1" parent="Z340vtowlNFs9T8fUVKw-0"/>
                <mxCell id="0" value="" style="group" parent="Z340vtowlNFs9T8fUVKw-1" vertex="1" connectable="0">
                    <mxGeometry x="208" y="347" width="411" height="475" as="geometry"/>
                </mxCell>
                <mxCell id="ZrhUMoB5-oB5zieBaNrR-1" value="この図形がそれぞれの&lt;br&gt;ページの出力する内容です" style="rhombus;whiteSpace=wrap;html=1;" parent="0" vertex="1">
                    <mxGeometry x="1" width="410" height="230" as="geometry"/>
                </mxCell>
                <mxCell id="ZrhUMoB5-oB5zieBaNrR-2" value="&lt;ul&gt;&lt;li&gt;この図形がそれぞれのページでPostする内容です&lt;/li&gt;&lt;/ul&gt;" style="shape=note;whiteSpace=wrap;html=1;backgroundOutline=1;darkOpacity=0.05;align=left;" parent="0" vertex="1">
                    <mxGeometry y="315" width="411" height="160" as="geometry"/>
                </mxCell>
                <mxCell id="Xd4OK4X50svH7sEJbm8g-0" value="&lt;ul&gt;&lt;li&gt;画面単位でユーザーによって動的に変わる内容をまとめました&lt;/li&gt;&lt;li&gt;ログイン, ユーザー登録, 投稿画面 については出力する内容は特にないかと思うので、PostRequestで送ってほしいものを書いています&lt;/li&gt;&lt;/ul&gt;" style="rounded=1;whiteSpace=wrap;html=1;fontSize=18;align=left;" parent="Z340vtowlNFs9T8fUVKw-1" vertex="1">
                    <mxGeometry x="74" y="60" width="680" height="210" as="geometry"/>
                </mxCell>
            </root>
        </mxGraphModel>
    </diagram>
    <diagram id="IO1MSbE2mdEYFcM0x6xF" name="ホーム画面">
        <mxGraphModel dx="1178" dy="1011" grid="1" gridSize="10" guides="1" tooltips="1" connect="1" arrows="1" fold="1" page="1" pageScale="1" pageWidth="827" pageHeight="1169" math="0" shadow="0">
            <root>
                <mxCell id="0"/>
                <mxCell id="1" parent="0"/>
                <mxCell id="IXMUylkqyQwvcKXOMblG-1" value="ホーム画面に表示する記事一覧" style="swimlane;" parent="1" vertex="1">
                    <mxGeometry x="119" y="80" width="590" height="380" as="geometry"/>
                </mxCell>
                <mxCell id="p5NHpRmwwphwd0liqsfX-1" value="&lt;div style=&quot;text-align: justify&quot;&gt;&lt;font style=&quot;font-size: 16px&quot;&gt;[ articleList ]&lt;/font&gt;&lt;/div&gt;&lt;div style=&quot;text-align: justify&quot;&gt;&lt;font size=&quot;3&quot;&gt;userName&lt;/font&gt;&lt;/div&gt;&lt;div style=&quot;text-align: justify&quot;&gt;&lt;font size=&quot;3&quot;&gt;title&lt;/font&gt;&lt;/div&gt;&lt;div style=&quot;text-align: justify&quot;&gt;&lt;font size=&quot;3&quot;&gt;tags&lt;/font&gt;&lt;/div&gt;&lt;div style=&quot;text-align: justify&quot;&gt;&lt;font size=&quot;3&quot;&gt;likesCount&lt;/font&gt;&lt;/div&gt;&lt;div style=&quot;text-align: justify&quot;&gt;&lt;font size=&quot;3&quot;&gt;postedDate&lt;/font&gt;&lt;/div&gt;" style="rhombus;whiteSpace=wrap;html=1;" parent="IXMUylkqyQwvcKXOMblG-1" vertex="1">
                    <mxGeometry x="60" y="50" width="470" height="300" as="geometry"/>
                </mxCell>
            </root>
        </mxGraphModel>
    </diagram>
    <diagram id="wjPuVwsGQqiZOK8hDawq" name="記事画面">
        <mxGraphModel dx="1178" dy="1011" grid="1" gridSize="10" guides="1" tooltips="1" connect="1" arrows="1" fold="1" page="1" pageScale="1" pageWidth="827" pageHeight="1169" math="0" shadow="0">
            <root>
                <mxCell id="vGxZBRVO76o9lHpCY_97-0"/>
                <mxCell id="vGxZBRVO76o9lHpCY_97-1" parent="vGxZBRVO76o9lHpCY_97-0"/>
                <mxCell id="aJAqhOcmWjOFBaTY7RBI-0" value="記事詳細" style="swimlane;" parent="vGxZBRVO76o9lHpCY_97-1" vertex="1">
                    <mxGeometry x="40" y="40" width="750" height="670" as="geometry"/>
                </mxCell>
                <mxCell id="aJAqhOcmWjOFBaTY7RBI-1" value="&lt;div style=&quot;text-align: justify&quot;&gt;&lt;font style=&quot;font-size: 16px&quot;&gt;&lt;span&gt;[Article]&lt;/span&gt;&lt;br&gt;&lt;/font&gt;&lt;/div&gt;&lt;div style=&quot;text-align: justify&quot;&gt;&lt;font size=&quot;3&quot;&gt;title&lt;br&gt;&lt;/font&gt;&lt;/div&gt;&lt;div style=&quot;text-align: justify&quot;&gt;&lt;font size=&quot;3&quot;&gt;content&lt;/font&gt;&lt;/div&gt;&lt;div style=&quot;text-align: justify&quot;&gt;&lt;font size=&quot;3&quot;&gt;tags&lt;/font&gt;&lt;/div&gt;&lt;div style=&quot;text-align: justify&quot;&gt;&lt;font size=&quot;3&quot;&gt;postedDate&lt;/font&gt;&lt;/div&gt;&lt;div style=&quot;text-align: justify&quot;&gt;&lt;font size=&quot;3&quot;&gt;&lt;br&gt;&lt;/font&gt;&lt;/div&gt;&lt;div style=&quot;text-align: justify&quot;&gt;&lt;font size=&quot;3&quot;&gt;&lt;span&gt;[PostedUser]&lt;/span&gt;&lt;br&gt;&lt;/font&gt;&lt;/div&gt;&lt;div style=&quot;text-align: justify&quot;&gt;&lt;font size=&quot;3&quot;&gt;image&lt;/font&gt;&lt;/div&gt;&lt;div style=&quot;text-align: justify&quot;&gt;&lt;font size=&quot;3&quot;&gt;userName&lt;/font&gt;&lt;/div&gt;&lt;div style=&quot;text-align: justify&quot;&gt;&lt;font size=&quot;3&quot;&gt;engineerType&lt;/font&gt;&lt;/div&gt;&lt;div style=&quot;text-align: justify&quot;&gt;&lt;font size=&quot;3&quot;&gt;comment&lt;/font&gt;&lt;/div&gt;&lt;div style=&quot;text-align: justify&quot;&gt;&lt;font size=&quot;3&quot;&gt;followerCount&lt;/font&gt;&lt;/div&gt;&lt;div style=&quot;text-align: justify&quot;&gt;&lt;font size=&quot;3&quot;&gt;followCount&lt;/font&gt;&lt;/div&gt;&lt;div style=&quot;text-align: justify&quot;&gt;&lt;font size=&quot;3&quot;&gt;postedCount&lt;/font&gt;&lt;/div&gt;&lt;div style=&quot;text-align: justify&quot;&gt;&lt;font size=&quot;3&quot;&gt;&lt;br&gt;&lt;/font&gt;&lt;/div&gt;&lt;div style=&quot;text-align: justify&quot;&gt;&lt;font size=&quot;3&quot;&gt;[likesUser]&lt;/font&gt;&lt;/div&gt;&lt;div style=&quot;text-align: justify&quot;&gt;&lt;font size=&quot;3&quot;&gt;userName&lt;/font&gt;&lt;/div&gt;&lt;div style=&quot;text-align: justify&quot;&gt;&lt;font size=&quot;3&quot;&gt;image&lt;/font&gt;&lt;/div&gt;&lt;div style=&quot;text-align: justify&quot;&gt;&lt;font size=&quot;3&quot;&gt;comment&lt;/font&gt;&lt;/div&gt;&lt;div style=&quot;text-align: justify&quot;&gt;&lt;font size=&quot;3&quot;&gt;engineerType&lt;/font&gt;&lt;/div&gt;&lt;div style=&quot;text-align: justify&quot;&gt;&lt;font size=&quot;3&quot;&gt;tags&lt;/font&gt;&lt;/div&gt;&lt;div style=&quot;text-align: justify&quot;&gt;&lt;font size=&quot;3&quot;&gt;&lt;br&gt;&lt;/font&gt;&lt;/div&gt;&lt;div style=&quot;text-align: justify&quot;&gt;&lt;font size=&quot;3&quot;&gt;[comments]&lt;/font&gt;&lt;/div&gt;&lt;div style=&quot;text-align: justify&quot;&gt;&lt;font size=&quot;3&quot;&gt;userName&lt;/font&gt;&lt;/div&gt;&lt;div style=&quot;text-align: justify&quot;&gt;&lt;font size=&quot;3&quot;&gt;image&lt;/font&gt;&lt;/div&gt;&lt;div style=&quot;text-align: justify&quot;&gt;&lt;font size=&quot;3&quot;&gt;comment&lt;/font&gt;&lt;/div&gt;&lt;div style=&quot;text-align: justify&quot;&gt;&lt;font size=&quot;3&quot;&gt;likesCount&lt;/font&gt;&lt;/div&gt;" style="rhombus;whiteSpace=wrap;html=1;" parent="aJAqhOcmWjOFBaTY7RBI-0" vertex="1">
                    <mxGeometry x="64" y="30" width="620" height="630" as="geometry"/>
                </mxCell>
            </root>
        </mxGraphModel>
    </diagram>
    <diagram id="4KqTqpcfU4mMgDoWI4Ux" name="ユーザーページ">
        <mxGraphModel dx="1178" dy="1011" grid="1" gridSize="10" guides="1" tooltips="1" connect="1" arrows="1" fold="1" page="1" pageScale="1" pageWidth="827" pageHeight="1169" math="0" shadow="0">
            <root>
                <mxCell id="Q5HR6Xw7V5B-4KHVWK0--0"/>
                <mxCell id="Q5HR6Xw7V5B-4KHVWK0--1" parent="Q5HR6Xw7V5B-4KHVWK0--0"/>
                <mxCell id="Hv5RDWwC1RzuadH-VDTB-0" value="ユーザーページに出力する情報" style="swimlane;" parent="Q5HR6Xw7V5B-4KHVWK0--1" vertex="1">
                    <mxGeometry x="130" y="50" width="590" height="500" as="geometry"/>
                </mxCell>
                <mxCell id="6m9MH7iaxlGN5KFNrG2f-1" value="&lt;div style=&quot;text-align: justify&quot;&gt;&lt;font style=&quot;font-size: 16px&quot;&gt;[userInfo]&lt;/font&gt;&lt;/div&gt;&lt;div style=&quot;text-align: justify&quot;&gt;&lt;font size=&quot;3&quot;&gt;userName&lt;/font&gt;&lt;/div&gt;&lt;div style=&quot;text-align: justify&quot;&gt;&lt;font size=&quot;3&quot;&gt;image&lt;/font&gt;&lt;/div&gt;&lt;div style=&quot;text-align: justify&quot;&gt;&lt;font size=&quot;3&quot;&gt;engineerType&lt;/font&gt;&lt;/div&gt;&lt;div style=&quot;text-align: justify&quot;&gt;&lt;font size=&quot;3&quot;&gt;comment&lt;/font&gt;&lt;/div&gt;&lt;div style=&quot;text-align: justify&quot;&gt;&lt;font size=&quot;3&quot;&gt;followCount&lt;/font&gt;&lt;/div&gt;&lt;div style=&quot;text-align: justify&quot;&gt;&lt;font size=&quot;3&quot;&gt;followerCount&lt;/font&gt;&lt;/div&gt;&lt;div style=&quot;text-align: justify&quot;&gt;&lt;font size=&quot;3&quot;&gt;tagsList&lt;/font&gt;&lt;/div&gt;&lt;div style=&quot;text-align: justify&quot;&gt;&lt;font size=&quot;3&quot;&gt;articleCount&lt;/font&gt;&lt;/div&gt;&lt;div style=&quot;text-align: justify&quot;&gt;&lt;font size=&quot;3&quot;&gt;&lt;br&gt;&lt;/font&gt;&lt;/div&gt;&lt;div style=&quot;text-align: justify&quot;&gt;&lt;font size=&quot;3&quot;&gt;[articleList]&lt;/font&gt;&lt;/div&gt;&lt;div style=&quot;text-align: justify&quot;&gt;&lt;font size=&quot;3&quot;&gt;title&lt;/font&gt;&lt;/div&gt;&lt;div style=&quot;text-align: justify&quot;&gt;&lt;font size=&quot;3&quot;&gt;tags&lt;/font&gt;&lt;/div&gt;&lt;div style=&quot;text-align: justify&quot;&gt;&lt;font size=&quot;3&quot;&gt;likesCount&lt;/font&gt;&lt;/div&gt;&lt;div style=&quot;text-align: justify&quot;&gt;&lt;font size=&quot;3&quot;&gt;postedDate&lt;/font&gt;&lt;/div&gt;" style="rhombus;whiteSpace=wrap;html=1;" parent="Hv5RDWwC1RzuadH-VDTB-0" vertex="1">
                    <mxGeometry x="100" y="70" width="410" height="370" as="geometry"/>
                </mxCell>
            </root>
        </mxGraphModel>
    </diagram>
    <diagram id="1JO676AMW4_QmNl2q5GR" name="フォロー, フォロワー画面">
        <mxGraphModel dx="1178" dy="1011" grid="1" gridSize="10" guides="1" tooltips="1" connect="1" arrows="1" fold="1" page="1" pageScale="1" pageWidth="827" pageHeight="1169" math="0" shadow="0">
            <root>
                <mxCell id="oD6eJyackzFd_JmDZigf-0"/>
                <mxCell id="oD6eJyackzFd_JmDZigf-1" parent="oD6eJyackzFd_JmDZigf-0"/>
                <mxCell id="8KNMMjLAGa-Jn2QONhuN-0" value="フォロー・フォロワー" style="swimlane;" parent="oD6eJyackzFd_JmDZigf-1" vertex="1">
                    <mxGeometry x="130" y="50" width="590" height="380" as="geometry"/>
                </mxCell>
                <mxCell id="8KNMMjLAGa-Jn2QONhuN-1" value="&lt;div style=&quot;text-align: justify&quot;&gt;&lt;font style=&quot;font-size: 16px&quot;&gt;[UserList]&lt;br&gt;&lt;/font&gt;&lt;/div&gt;&lt;div style=&quot;text-align: justify&quot;&gt;&lt;font size=&quot;3&quot;&gt;userName&lt;/font&gt;&lt;/div&gt;&lt;div style=&quot;text-align: justify&quot;&gt;&lt;font size=&quot;3&quot;&gt;image&lt;/font&gt;&lt;/div&gt;&lt;div style=&quot;text-align: justify&quot;&gt;&lt;font size=&quot;3&quot;&gt;comment&lt;/font&gt;&lt;/div&gt;&lt;div style=&quot;text-align: justify&quot;&gt;&lt;font size=&quot;3&quot;&gt;tags&lt;/font&gt;&lt;/div&gt;" style="rhombus;whiteSpace=wrap;html=1;" parent="8KNMMjLAGa-Jn2QONhuN-0" vertex="1">
                    <mxGeometry x="60" y="50" width="470" height="300" as="geometry"/>
                </mxCell>
            </root>
        </mxGraphModel>
    </diagram>
    <diagram id="_qi8YO8qRfochqu0tMmV" name="ログイン">
        <mxGraphModel dx="1178" dy="1011" grid="1" gridSize="10" guides="1" tooltips="1" connect="1" arrows="1" fold="1" page="1" pageScale="1" pageWidth="827" pageHeight="1169" math="0" shadow="0">
            <root>
                <mxCell id="ey9X1KTGInJevS6miDnt-0"/>
                <mxCell id="ey9X1KTGInJevS6miDnt-1" parent="ey9X1KTGInJevS6miDnt-0"/>
                <mxCell id="i4bbj482nddJX64HNEZd-0" value="ログイン処理" style="swimlane;" parent="ey9X1KTGInJevS6miDnt-1" vertex="1">
                    <mxGeometry x="50" y="80" width="740" height="400" as="geometry"/>
                </mxCell>
                <mxCell id="i4bbj482nddJX64HNEZd-2" value="&lt;ul&gt;&lt;li&gt;&lt;font style=&quot;font-size: 16px&quot;&gt;userId&lt;/font&gt;&lt;/li&gt;&lt;li&gt;&lt;font size=&quot;3&quot;&gt;password&lt;/font&gt;&lt;/li&gt;&lt;/ul&gt;" style="shape=note;whiteSpace=wrap;html=1;backgroundOutline=1;darkOpacity=0.05;align=left;" parent="i4bbj482nddJX64HNEZd-0" vertex="1">
                    <mxGeometry x="251" y="140" width="226" height="100" as="geometry"/>
                </mxCell>
            </root>
        </mxGraphModel>
    </diagram>
    <diagram id="BHNKe7FaLvuEek9LJ8FT" name="ユーザー登録">
        <mxGraphModel dx="1178" dy="1011" grid="1" gridSize="10" guides="1" tooltips="1" connect="1" arrows="1" fold="1" page="1" pageScale="1" pageWidth="827" pageHeight="1169" math="0" shadow="0">
            <root>
                <mxCell id="vV3oujGr-8vT-vV_kl9R-0"/>
                <mxCell id="vV3oujGr-8vT-vV_kl9R-1" parent="vV3oujGr-8vT-vV_kl9R-0"/>
                <mxCell id="mZyVOxAp-tI_onH36zQX-0" value="ユーザー登録処理" style="swimlane;" parent="vV3oujGr-8vT-vV_kl9R-1" vertex="1">
                    <mxGeometry x="119" y="90" width="590" height="380" as="geometry"/>
                </mxCell>
                <mxCell id="mZyVOxAp-tI_onH36zQX-1" value="&lt;div style=&quot;text-align: left&quot;&gt;&lt;ul&gt;&lt;li&gt;&lt;span&gt;&lt;font style=&quot;font-size: 16px&quot;&gt;userName&lt;/font&gt;&lt;/span&gt;&lt;/li&gt;&lt;li&gt;&lt;span&gt;&lt;font size=&quot;3&quot;&gt;email&lt;/font&gt;&lt;/span&gt;&lt;/li&gt;&lt;li&gt;&lt;span&gt;&lt;font size=&quot;3&quot;&gt;password&lt;/font&gt;&lt;/span&gt;&lt;/li&gt;&lt;li&gt;&lt;span&gt;&lt;font size=&quot;3&quot;&gt;engineerType&lt;/font&gt;&lt;/span&gt;&lt;/li&gt;&lt;/ul&gt;&lt;/div&gt;" style="shape=note;whiteSpace=wrap;html=1;backgroundOutline=1;darkOpacity=0.05;" parent="mZyVOxAp-tI_onH36zQX-0" vertex="1">
                    <mxGeometry x="157" y="110" width="275" height="160" as="geometry"/>
                </mxCell>
            </root>
        </mxGraphModel>
    </diagram>
    <diagram id="pI2Atk3QBT7HL0PJher7" name="投稿画面">
        <mxGraphModel dx="1178" dy="1011" grid="1" gridSize="10" guides="1" tooltips="1" connect="1" arrows="1" fold="1" page="1" pageScale="1" pageWidth="827" pageHeight="1169" math="0" shadow="0">
            <root>
                <mxCell id="KGnYv_AIOO3_AxNBBZcK-0"/>
                <mxCell id="KGnYv_AIOO3_AxNBBZcK-1" parent="KGnYv_AIOO3_AxNBBZcK-0"/>
                <mxCell id="pSF9XFQ3wwtPJ5sig_vy-0" value="記事投稿" style="swimlane;" parent="KGnYv_AIOO3_AxNBBZcK-1" vertex="1">
                    <mxGeometry x="119" y="80" width="590" height="380" as="geometry"/>
                </mxCell>
                <mxCell id="pSF9XFQ3wwtPJ5sig_vy-1" value="&lt;ul&gt;&lt;li style=&quot;text-align: justify&quot;&gt;&lt;font style=&quot;font-size: 16px&quot;&gt;userId&lt;/font&gt;&lt;/li&gt;&lt;li style=&quot;text-align: justify&quot;&gt;&lt;font size=&quot;3&quot;&gt;title&lt;/font&gt;&lt;/li&gt;&lt;li style=&quot;text-align: justify&quot;&gt;&lt;font size=&quot;3&quot;&gt;content&lt;/font&gt;&lt;/li&gt;&lt;li style=&quot;text-align: justify&quot;&gt;&lt;font size=&quot;3&quot;&gt;tags&lt;/font&gt;&lt;/li&gt;&lt;/ul&gt;" style="shape=note;whiteSpace=wrap;html=1;backgroundOutline=1;darkOpacity=0.05;align=center;" parent="pSF9XFQ3wwtPJ5sig_vy-0" vertex="1">
                    <mxGeometry x="157" y="110" width="275" height="160" as="geometry"/>
                </mxCell>
            </root>
        </mxGraphModel>
    </diagram>
</mxfile>